<?xml version="1.0" standalone="no"?>
<!DOCTYPE svg PUBLIC "-//W3C//DTD SVG 20010904//EN"
 "http://www.w3.org/TR/2001/REC-SVG-20010904/DTD/svg10.dtd">
<svg version="1.0" xmlns="http://www.w3.org/2000/svg"
 width="1855.000000pt" height="1855.000000pt" viewBox="0 0 1855.000000 1855.000000"
 preserveAspectRatio="xMidYMid meet">
<metadata>
Created by potrace 1.14, written by Peter Selinger 2001-2017
</metadata>
<g transform="translate(0.000000,1855.000000) scale(0.100000,-0.100000)"
fill="#000000" stroke="none">
<path d="M4370 14288 c-22 -29 -122 -163 -221 -298 -199 -268 -216 -290 -490
-620 -196 -237 -247 -307 -297 -405 -17 -33 -51 -91 -76 -130 l-45 -70 31 -13
c51 -22 89 -18 113 11 l23 25 6 -49 c7 -53 27 -72 62 -59 35 14 431 388 547
518 198 222 378 435 402 476 13 23 48 105 79 183 64 161 67 191 41 365 -9 56
-17 103 -18 104 -1 0 -14 4 -28 7 l-26 7 -5 -173 c-4 -126 -9 -182 -21 -209
-13 -31 -189 -249 -489 -606 -38 -46 -72 -81 -75 -78 -7 6 11 30 301 397 227
287 222 277 231 473 3 67 8 138 11 159 2 21 0 37 -6 37 -6 0 -28 -24 -50 -52z"/>
<path d="M10670 13539 c-22 -9 -8 -15 105 -44 72 -19 149 -40 172 -46 42 -11
48 -18 154 -181 4 -6 42 -5 101 3 52 6 107 9 121 5 15 -3 74 -52 132 -107 58
-56 105 -99 105 -96 0 38 -91 214 -144 281 -35 42 -134 55 -227 30 -12 -3 -25
10 -44 42 -15 26 -43 64 -62 85 l-35 39 -177 -1 c-97 0 -187 -5 -201 -10z"/>
<path d="M10004 13336 c-61 -23 -124 -61 -124 -75 0 -5 19 -5 43 0 23 4 70 8
103 9 l62 0 63 -82 c34 -46 64 -85 65 -87 2 -2 53 13 114 33 125 40 123 41
214 -29 56 -42 58 -29 10 51 -56 95 -75 109 -137 107 -28 -1 -74 -9 -102 -17
l-50 -16 -35 40 c-46 51 -106 90 -139 89 -14 0 -53 -10 -87 -23z"/>
<path d="M17831 13064 c-115 -31 -224 -137 -257 -252 -24 -81 -16 -202 18
-274 35 -76 107 -151 176 -185 77 -38 212 -45 290 -15 152 58 245 194 244 357
0 180 -109 326 -277 370 -72 18 -123 18 -194 -1z m211 -34 c147 -41 259 -227
230 -382 -22 -117 -77 -196 -170 -246 -33 -18 -66 -32 -73 -32 -8 1 2 9 21 18
62 32 91 55 126 100 38 50 38 62 1 37 -29 -19 -32 -15 -42 44 -5 32 -10 40
-17 30 -7 -10 -8 -8 -3 7 7 25 -23 106 -36 98 -5 -3 -6 2 -3 10 7 19 -26 77
-39 69 -6 -3 -7 -1 -3 5 7 11 -16 55 -25 49 -2 -1 -3 0 -2 2 5 8 -18 41 -25
37 -5 -3 -9 4 -9 15 -1 12 2 17 10 13 7 -4 9 -4 5 0 -3 4 -10 8 -15 7 -4 0
-18 10 -31 22 -13 12 -25 21 -28 20 -2 -2 -3 -1 -1 1 1 3 -8 15 -21 28 -12 14
-19 28 -15 33 5 4 2 5 -5 1 -7 -4 -26 -9 -42 -11 -17 -2 -38 -8 -47 -13 -14
-8 -13 -11 8 -23 13 -7 27 -13 32 -14 4 0 6 -3 5 -7 -2 -3 7 -17 20 -30 12
-14 19 -28 15 -33 -5 -4 -3 -5 4 -1 6 3 14 2 18 -4 4 -6 11 -7 17 -4 6 4 9 3
6 -2 -8 -12 67 -115 77 -106 4 4 2 -4 -4 -16 -7 -13 -10 -26 -7 -30 3 -3 6 1
6 9 0 11 2 11 10 -1 5 -8 7 -24 4 -35 -4 -14 -3 -16 4 -7 6 10 15 0 30 -37 12
-27 22 -55 22 -61 0 -6 5 -8 12 -4 6 4 8 3 4 -4 -10 -17 5 -92 18 -86 6 3 2
-2 -8 -10 -28 -22 -139 -21 -215 3 -80 25 -139 61 -185 112 -94 103 -88 213
19 337 23 26 43 41 52 38 8 -3 11 -1 8 4 -7 11 59 46 112 60 42 10 118 6 175
-10z"/>
<path d="M8136 12584 c-252 -267 -464 -488 -471 -490 -7 -3 -207 92 -444 210
l-431 216 -34 -52 c-18 -29 -320 -498 -670 -1042 -350 -544 -636 -990 -634
-991 5 -5 6518 1179 6518 1185 0 3 -311 229 -691 502 l-690 497 -256 -234
-256 -233 -51 32 c-262 167 -1416 886 -1423 886 -4 0 -215 -219 -467 -486z
m605 -8 c65 -175 119 -319 121 -321 2 -2 48 30 101 71 54 41 101 73 105 70 5
-3 84 -119 177 -258 l168 -253 204 -160 c112 -87 203 -160 203 -161 0 -3 -308
146 -753 364 -191 94 -357 174 -367 177 -16 5 -43 -26 -151 -170 -88 -118
-135 -172 -140 -163 -4 7 -33 117 -65 243 -31 127 -58 231 -59 233 -1 1 -91
-32 -201 -74 -109 -42 -228 -87 -264 -100 l-65 -25 425 426 c234 234 429 424
435 422 5 -2 62 -146 126 -321z m2364 -502 c286 -211 526 -391 533 -398 9 -8
-68 3 -216 33 l-230 45 -117 -46 c-78 -31 -117 -43 -120 -35 -2 7 -19 68 -36
137 -18 69 -35 128 -39 133 -3 4 -59 -92 -125 -213 -65 -121 -120 -219 -121
-217 -2 1 3 158 11 347 8 189 13 346 11 347 -1 2 -101 -40 -221 -92 -120 -52
-222 -95 -226 -95 -12 0 354 438 366 439 6 0 244 -173 530 -385z m-3698 -135
c296 -188 543 -343 548 -345 7 -3 7 38 0 126 -7 93 -7 129 0 126 6 -2 213
-139 460 -305 300 -201 440 -301 424 -301 -47 0 -518 85 -1163 211 -170 33
-314 58 -320 56 -6 -3 -53 -82 -105 -176 -51 -95 -95 -171 -96 -169 -2 2 -24
147 -50 323 -25 176 -48 322 -51 324 -2 3 -19 -9 -37 -26 -25 -24 -973 -866
-1066 -947 -13 -12 -21 -14 -16 -6 18 33 928 1450 931 1450 1 0 245 -154 541
-341z"/>
<path d="M3165 12976 c-12 -18 -13 -29 -5 -51 13 -33 68 -105 81 -105 8 0 109
143 109 154 0 10 -76 26 -122 26 -39 0 -50 -4 -63 -24z"/>
<path d="M4625 12886 c-99 -19 -165 -47 -239 -100 -109 -77 -229 -251 -242
-350 -6 -44 -5 -48 12 -43 29 9 123 12 130 4 4 -4 -4 -7 -18 -7 -13 0 -48 -7
-77 -16 -96 -28 -94 -85 5 -179 35 -34 64 -69 64 -77 0 -8 -16 -36 -35 -61
-19 -25 -35 -51 -35 -57 0 -6 -34 12 -76 41 -81 56 -214 182 -214 202 0 7 7
21 15 31 21 28 19 50 -11 86 -22 26 -26 38 -21 72 3 22 1 50 -4 62 -8 17 -255
191 -291 204 -5 2 -37 -11 -72 -29 l-63 -33 -49 32 c-48 32 -189 82 -232 82
-50 0 -100 -46 -75 -71 5 -5 45 -23 88 -39 89 -34 83 -33 -92 13 -114 30 -123
31 -139 15 -23 -23 -11 -64 24 -82 15 -8 103 -40 195 -71 92 -32 166 -59 165
-61 -2 -1 -80 20 -173 47 -105 31 -172 46 -178 40 -12 -12 23 -63 61 -89 15
-10 60 -31 99 -46 87 -33 108 -54 26 -25 -72 25 -107 22 -111 -8 -7 -46 13
-59 165 -111 81 -28 175 -58 208 -67 153 -43 196 -91 279 -310 118 -311 325
-529 616 -651 94 -39 34 -26 -75 16 -183 72 -352 194 -464 335 -31 39 -94 137
-140 218 -47 81 -88 144 -91 140 -4 -5 -17 -37 -30 -73 -33 -92 -104 -239
-136 -280 -14 -19 -24 -28 -21 -20 45 133 147 473 147 489 0 12 -11 32 -24 44
-25 24 -370 142 -386 132 -5 -3 -23 -30 -40 -61 -18 -30 -34 -53 -36 -51 -2 2
1 30 7 61 6 32 9 59 7 61 -2 1 -46 -8 -98 -21 -76 -20 -102 -22 -130 -15 -73
21 -136 110 -185 259 -9 29 -21 52 -25 50 -17 -6 -186 -162 -202 -187 -30 -44
-19 -108 29 -183 31 -47 83 -82 158 -108 32 -11 90 -34 127 -52 64 -29 68 -33
68 -65 0 -37 27 -59 110 -89 109 -40 202 -89 235 -125 25 -28 44 -70 79 -177
25 -78 46 -152 46 -167 0 -14 -13 -49 -29 -78 -48 -85 -73 -193 -73 -316 1
-173 45 -330 137 -481 l45 -75 -41 45 c-59 64 -145 198 -184 286 -17 41 -36
76 -41 76 -24 2 -142 -248 -204 -433 -76 -226 -87 -351 -34 -400 37 -34 129
-33 259 5 89 26 116 30 245 30 136 1 148 -1 200 -25 69 -33 83 -46 209 -202
56 -71 114 -133 128 -140 38 -17 509 28 543 52 30 22 71 122 72 179 1 32 -6
52 -29 85 -72 101 -139 283 -177 487 -24 126 -18 126 19 0 40 -137 90 -258
144 -350 61 -103 66 -104 81 -14 21 136 36 169 103 242 81 86 117 133 158 206
l33 59 -25 16 c-69 45 -160 146 -219 246 l-24 40 49 -43 c72 -63 190 -134 249
-149 71 -18 90 -2 125 102 15 46 63 144 113 230 105 182 118 211 118 272 0
100 -88 196 -251 273 -57 26 -74 30 -155 30 -95 0 -196 21 -292 61 -46 19 -56
28 -78 74 -33 71 -92 136 -169 187 -36 23 -63 44 -61 46 2 2 40 -15 84 -37 85
-43 108 -65 164 -165 61 -108 100 -104 74 8 -9 37 -16 70 -16 74 0 4 23 -28
51 -71 64 -98 104 -125 201 -139 40 -5 126 -21 190 -35 76 -16 128 -22 149
-18 92 20 221 244 245 423 6 45 4 51 -17 65 -13 9 -61 26 -107 38 -76 20 -83
24 -76 43 3 12 9 40 11 64 4 36 1 48 -18 69 -30 31 -55 42 -144 58 -57 11 -63
13 -30 14 136 2 215 -28 230 -86 9 -39 51 -50 152 -41 113 10 183 26 183 43 0
17 -110 71 -163 80 -61 12 -76 31 -87 115 -14 98 -56 186 -122 256 -62 66
-115 99 -201 126 -81 25 -240 32 -332 14z m590 -807 c70 -17 77 -25 69 -73 -3
-23 -7 -42 -9 -44 -4 -4 -118 38 -131 49 -8 6 -14 29 -14 51 0 33 3 38 18 34
9 -3 40 -10 67 -17z m-27 -146 c61 -20 69 -31 52 -73 -9 -23 -19 -30 -39 -30
-42 1 -142 24 -143 33 0 10 60 87 69 87 3 0 31 -8 61 -17z m-59 -147 c25 -7
47 -18 49 -25 5 -15 -42 -77 -70 -92 -23 -12 -122 4 -133 22 -7 10 13 75 28
97 12 16 70 15 126 -2z"/>
<path d="M2965 12841 c-104 -37 -175 -83 -267 -170 -34 -32 -38 -40 -38 -87 0
-73 32 -168 82 -243 70 -105 102 -110 74 -13 -18 65 -20 82 -8 82 4 0 18 -29
31 -65 23 -67 42 -85 83 -85 33 0 131 48 123 60 -3 5 -10 36 -15 67 -7 41 -17
64 -33 79 -14 11 -30 38 -37 60 -7 21 -21 56 -32 77 -15 31 -17 41 -7 53 21
26 66 44 107 44 32 0 41 5 50 26 7 14 29 32 49 40 l37 16 -25 20 c-27 21 -98
58 -114 57 -5 0 -32 -8 -60 -18z"/>
<path d="M17395 12632 c-74 -13 -1717 -361 -2350 -497 -423 -91 -857 -184
-962 -207 -106 -23 -191 -43 -189 -45 2 -2 772 129 1712 291 940 162 1746 300
1791 307 l82 12 -18 26 c-17 26 -37 72 -43 101 -2 9 -11 14 -23 12z"/>
<path d="M17315 12379 c-155 -28 -2482 -430 -2695 -466 -58 -9 -98 -19 -89
-21 8 -1 434 54 945 122 511 69 1199 161 1529 205 330 44 610 81 623 83 21 3
15 10 -43 56 -38 30 -75 52 -88 51 -12 -1 -94 -14 -182 -30z"/>
<path d="M14465 11715 c-1328 -201 -1424 -217 -1480 -244 -33 -17 -80 -49
-104 -73 -44 -43 -101 -146 -101 -183 -1 -52 -15 -50 -116 21 -115 80 -174
103 -265 104 -66 0 -4587 -679 -4664 -700 -22 -7 -60 -23 -84 -36 -43 -24 -47
-24 -119 -12 -73 12 -81 11 -1239 -165 -1064 -161 -1171 -179 -1227 -205 -79
-37 -141 -100 -180 -182 -28 -59 -31 -74 -31 -160 1 -84 4 -102 29 -154 28
-58 85 -124 140 -163 l29 -20 -323 -812 c-178 -446 -327 -808 -331 -804 -9 10
-126 325 -190 512 -74 216 -152 529 -174 693 -4 28 -15 56 -30 72 -19 20 -22
32 -18 65 7 48 -15 88 -52 97 -23 6 -23 7 -9 29 24 37 14 77 -25 100 -55 32
-103 85 -204 227 -112 158 -187 233 -242 244 -58 11 -284 -4 -345 -22 -175
-52 -270 -163 -270 -318 0 -64 61 -407 82 -460 17 -43 76 -66 173 -65 44 0 99
4 123 8 27 5 40 5 34 -1 -12 -12 -186 -48 -234 -48 -36 0 -38 -2 -38 -30 0
-17 7 -47 15 -67 l15 -36 58 6 c50 6 208 42 267 62 11 3 -25 -16 -80 -44 -145
-73 -194 -127 -167 -187 6 -13 51 -81 100 -151 95 -137 191 -293 317 -518 236
-424 281 -496 297 -490 7 3 184 34 393 70 362 62 380 66 406 92 19 20 130 287
389 938 200 501 365 919 367 930 4 17 -13 31 -100 82 -121 72 -157 108 -157
161 0 45 30 96 67 115 38 20 2294 361 2329 353 39 -10 82 -58 90 -100 7 -41
57 90 -606 -1586 -149 -377 -285 -721 -302 -765 l-30 -80 -337 -338 c-185
-186 -348 -345 -362 -352 -14 -8 -1016 -151 -2316 -331 l-2290 -317 -38 19
c-24 13 -46 35 -59 59 -17 33 -18 43 -8 79 6 23 220 569 475 1215 l464 1174
-89 138 c-50 77 -91 152 -95 172 -6 42 18 99 53 122 16 10 164 41 382 79 l356
62 12 70 c12 76 29 115 70 163 l26 31 -24 0 c-12 0 -207 -32 -433 -71 -451
-78 -493 -90 -579 -169 -27 -25 -60 -70 -79 -109 -29 -60 -32 -73 -32 -161 1
-109 8 -130 90 -259 30 -48 55 -93 55 -99 0 -7 -199 -516 -442 -1130 -243
-614 -447 -1144 -455 -1177 -48 -215 109 -432 327 -451 52 -4 519 58 2340 310
1251 174 2295 320 2319 326 108 27 131 46 503 423 l357 362 -31 -89 c-27 -80
-30 -100 -26 -176 3 -71 9 -97 33 -144 34 -67 112 -143 182 -176 95 -45 112
-44 1183 105 542 75 1004 141 1028 147 53 13 148 73 185 118 42 50 56 80 237
537 93 234 176 436 185 449 8 13 30 31 48 40 22 12 443 74 1382 204 743 103
1351 186 1353 185 2 -2 -40 -113 -92 -249 -53 -135 -101 -266 -107 -291 -16
-65 -7 -190 19 -248 29 -65 113 -151 180 -184 110 -54 -18 -68 2717 311 1370
191 2505 351 2523 357 59 20 149 87 186 142 39 57 279 654 298 740 12 59 5
139 -19 200 -16 41 -324 560 -409 688 -73 111 -181 171 -309 171 -38 0 -346
-39 -684 -86 -513 -72 -623 -90 -667 -110 -59 -27 -147 -104 -172 -151 -9 -16
-62 -142 -117 -280 -88 -217 -105 -252 -131 -267 -29 -17 -239 -53 -254 -43
-4 3 164 434 373 957 l382 953 0 90 c0 76 -4 99 -27 147 -36 78 -107 152 -183
189 -115 56 -60 62 -1640 -176z m1536 -50 c36 -19 69 -70 69 -108 0 -16 -196
-517 -435 -1113 -239 -597 -435 -1099 -435 -1115 0 -16 9 -38 21 -50 26 -26
24 -27 443 32 273 38 312 45 336 66 21 18 57 96 151 331 125 312 148 354 200
367 13 3 296 43 629 89 638 88 646 89 687 44 21 -24 357 -577 392 -647 12 -22
21 -49 21 -60 0 -33 -249 -654 -273 -679 -11 -12 -37 -27 -56 -32 -53 -15
-4937 -690 -4993 -690 -41 0 -52 5 -83 35 -29 30 -35 43 -35 79 0 34 106 318
470 1257 259 667 467 1215 463 1219 -4 4 -118 82 -253 173 -135 91 -256 177
-269 191 -53 56 -30 159 41 191 31 14 2772 432 2846 434 18 1 46 -6 63 -14z
m-3558 -586 c12 -7 174 -115 360 -242 225 -153 343 -240 353 -258 8 -16 14
-43 14 -61 0 -18 -108 -309 -256 -688 -276 -707 -278 -711 -356 -725 -18 -3
-666 -93 -1441 -200 -898 -124 -1418 -200 -1437 -210 -16 -9 -36 -25 -44 -38
-8 -12 -103 -244 -210 -514 -108 -271 -202 -506 -211 -523 -8 -16 -28 -36 -43
-44 -28 -14 -1949 -286 -2020 -286 -71 0 -122 52 -122 124 0 23 162 446 465
1213 256 647 465 1186 465 1198 0 11 -56 108 -125 215 -107 167 -125 201 -125
235 0 50 28 98 68 114 36 15 4523 698 4595 700 27 1 58 -4 70 -10z"/>
<path d="M14536 11345 c-1349 -204 -1306 -195 -1306 -245 0 -9 10 -26 23 -37
12 -11 186 -132 387 -268 201 -135 369 -251 374 -256 5 -5 -22 0 -60 11 -253
73 -262 74 -287 13 -158 -397 -877 -2267 -877 -2281 0 -10 8 -27 19 -36 18
-16 145 0 2442 318 1333 185 2435 339 2448 343 21 7 41 49 137 293 62 157 113
290 114 297 0 20 -352 594 -374 608 -18 11 -97 3 -586 -66 -311 -43 -575 -81
-586 -84 -18 -4 -47 -67 -163 -357 l-141 -353 -863 -119 c-474 -66 -871 -121
-882 -123 -16 -3 -15 -1 5 10 14 8 146 50 293 93 250 72 272 80 314 118 24 21
55 56 68 77 31 49 867 2134 873 2177 6 43 -12 62 -57 61 -20 0 -612 -88 -1315
-194z"/>
<path d="M10130 10629 c-1229 -186 -2242 -343 -2250 -347 -33 -19 -20 -52 90
-222 89 -138 305 -486 378 -610 8 -14 -40 32 -108 103 -72 75 -130 127 -141
127 -55 0 -60 -11 -494 -1110 -451 -1144 -435 -1095 -373 -1129 24 -14 100 -5
910 107 638 89 893 128 917 141 19 9 47 33 62 52 15 19 107 237 213 506 103
259 197 486 209 504 48 72 -12 61 1525 274 886 122 1424 201 1443 210 16 9 36
27 45 40 32 50 485 1220 479 1240 -5 20 -621 444 -653 450 -9 2 -1023 -149
-2252 -336z m1031 -430 c11 -11 18 -26 16 -32 -3 -7 -41 -103 -86 -215 -44
-111 -81 -211 -81 -221 0 -10 6 -23 13 -30 11 -9 317 -27 547 -32 30 -1 48 -3
40 -5 -8 -3 -402 -58 -875 -124 -776 -107 -862 -117 -882 -104 -14 8 -23 25
-23 39 0 26 191 513 216 553 8 12 29 30 47 38 26 12 938 148 1025 153 12 0 31
-8 43 -20z"/>
<path d="M10521 10009 c-285 -39 -358 -52 -371 -66 -20 -21 -130 -294 -130
-323 0 -11 10 -26 23 -34 19 -12 66 -7 401 40 346 48 381 55 401 76 28 29 137
303 133 332 -3 18 -10 21 -53 23 -27 0 -209 -21 -404 -48z m369 -24 c9 -11 5
-33 -25 -112 -21 -54 -47 -108 -59 -120 -19 -19 -58 -27 -348 -67 -180 -25
-335 -43 -343 -40 -8 4 -15 14 -15 23 0 23 77 213 93 228 10 9 581 97 663 102
12 0 27 -6 34 -14z"/>
<path d="M14473 11883 c9 -2 23 -2 30 0 6 3 -1 5 -18 5 -16 0 -22 -2 -12 -5z"/>
<path d="M13848 11873 c7 -3 16 -2 19 1 4 3 -2 6 -13 5 -11 0 -14 -3 -6 -6z"/>
<path d="M14408 11873 c6 -2 18 -2 25 0 6 3 1 5 -13 5 -14 0 -19 -2 -12 -5z"/>
<path d="M13798 11863 c7 -3 16 -2 19 1 4 3 -2 6 -13 5 -11 0 -14 -3 -6 -6z"/>
<path d="M14348 11863 c7 -3 16 -2 19 1 4 3 -2 6 -13 5 -11 0 -14 -3 -6 -6z"/>
<path d="M6340 10056 c-547 -83 -1001 -155 -1008 -159 -18 -12 -15 -62 6 -79
20 -18 203 -126 485 -287 109 -63 196 -115 195 -117 -2 -2 -122 42 -266 98
-145 55 -265 99 -267 97 -2 -2 -175 -434 -384 -959 -209 -525 -388 -965 -396
-978 -9 -12 -29 -29 -44 -37 -27 -13 -1683 -249 -1704 -242 -5 1 128 36 294
76 402 98 399 97 399 123 0 11 -77 145 -172 297 -350 564 -452 742 -548 952
-67 146 -126 324 -140 424 -19 132 -23 147 -52 168 l-28 21 -257 -43 c-142
-24 -268 -50 -281 -58 -12 -7 -22 -23 -22 -36 0 -12 79 -159 176 -327 236
-411 228 -396 216 -385 -5 6 -58 69 -117 140 -58 72 -115 134 -126 139 -15 7
-24 5 -38 -10 -25 -27 -851 -2124 -851 -2161 0 -47 40 -83 92 -83 24 0 997
132 2163 294 1606 223 2134 299 2177 316 32 12 84 41 115 65 81 61 554 551
585 605 24 41 223 540 707 1769 94 238 171 443 171 455 0 22 -33 66 -50 66 -4
0 -14 2 -22 4 -7 2 -461 -64 -1008 -148z"/>
<path d="M4140 9624 c-52 -7 -106 -13 -119 -13 -22 -1 -23 -4 -18 -39 5 -44
36 -112 72 -161 17 -23 25 -47 25 -74 0 -22 14 -83 30 -135 17 -52 32 -124 35
-161 7 -126 76 -383 168 -631 30 -80 61 -159 70 -175 l15 -30 6 25 c17 73 29
278 31 555 l3 310 34 70 c31 67 33 76 33 182 0 125 -11 153 -74 183 -17 9 -40
30 -51 47 -38 64 -81 72 -260 47z"/>
<path d="M16975 8168 c-352 -49 -642 -91 -644 -93 -2 -3 26 -55 63 -117 58
-98 63 -109 34 -81 l-34 33 -131 -333 c-72 -182 -130 -333 -129 -334 2 -3
1367 185 1401 192 14 3 28 26 49 82 16 43 65 167 108 276 43 108 78 203 78
209 0 14 -136 245 -148 251 -4 2 -295 -36 -647 -85z m294 -170 c-174 -442
-181 -458 -202 -463 -48 -11 -400 -56 -410 -52 -6 2 19 11 55 21 l65 17 94
235 c51 130 98 238 103 242 6 3 78 16 161 28 82 12 151 22 152 23 2 0 -7 -23
-18 -51z m-632 -524 c-3 -3 -12 -4 -19 -1 -8 3 -5 6 6 6 11 1 17 -2 13 -5z"/>
<path d="M16058 8041 c-104 -15 -192 -31 -197 -36 -13 -15 -161 -393 -161
-413 0 -9 9 -41 20 -71 12 -29 19 -55 18 -57 -2 -2 -69 105 -148 238 -79 132
-150 242 -157 245 -11 4 -693 -85 -701 -92 -2 -1 29 -56 69 -121 63 -106 67
-115 35 -85 -20 19 -37 33 -39 30 -9 -10 -258 -652 -254 -655 7 -7 547 72 556
81 5 6 32 68 61 139 l51 128 -20 52 c-10 28 -24 63 -30 79 -6 15 -9 27 -7 27
2 0 54 -86 116 -191 62 -105 118 -193 125 -195 12 -5 562 69 569 77 3 3 294
734 331 832 9 22 -1 22 -237 -12z"/>
<path d="M13775 7724 c-126 -18 -233 -33 -238 -34 -4 0 21 -46 56 -103 85
-137 97 -162 55 -113 -19 21 -38 37 -44 35 -5 -2 -169 -165 -364 -362 -320
-323 -352 -358 -320 -353 19 4 377 54 794 111 418 58 761 106 762 108 6 6
-446 742 -458 743 -7 1 -116 -13 -243 -32z m69 -551 l45 -78 -182 -27 c-231
-34 -267 -34 -161 -1 77 24 87 30 160 104 43 44 82 79 85 79 4 0 28 -35 53
-77z m-387 -139 c-3 -3 -12 -4 -19 -1 -8 3 -5 6 6 6 11 1 17 -2 13 -5z"/>
<path d="M12838 7595 c-87 -13 -164 -25 -171 -28 -7 -3 -44 -84 -81 -180 -66
-170 -69 -175 -100 -181 -81 -14 -278 -38 -282 -34 -2 3 25 80 62 172 36 92
63 170 60 173 -3 3 -155 -16 -338 -41 -183 -25 -339 -46 -345 -46 -22 0 -15
-17 53 -128 52 -85 60 -101 35 -78 -17 16 -33 27 -37 24 -7 -8 -262 -652 -259
-656 3 -3 503 65 542 73 17 4 33 35 83 163 34 86 63 158 64 160 6 6 307 45
311 40 3 -3 -22 -74 -55 -158 -33 -84 -59 -154 -58 -155 2 -2 121 14 265 33
l262 37 136 340 c74 188 135 347 135 354 0 7 -17 41 -37 76 -44 75 -23 72
-245 40z"/>
<path d="M11325 7385 c-126 -19 -237 -34 -245 -34 -15 -1 -71 -52 -470 -430
l-175 -166 115 125 115 125 58 148 c32 82 57 150 55 152 -2 2 -160 -19 -353
-46 -192 -27 -351 -49 -352 -49 -1 0 29 -53 68 -117 62 -103 66 -114 36 -85
l-35 34 -125 -319 c-70 -175 -129 -325 -132 -334 -5 -13 33 -10 266 22 149 21
277 40 284 42 7 3 38 70 69 149 32 78 61 147 65 151 5 5 50 -51 100 -122 51
-72 98 -131 104 -131 51 -1 626 87 623 95 -2 6 -63 94 -136 197 l-133 188 -56
-47 c-104 -88 -31 -15 230 228 142 134 259 246 259 251 0 4 -1 7 -2 7 -2 -1
-106 -16 -233 -34z"/>
<path d="M16900 7083 c-256 -36 -467 -67 -469 -69 -2 -1 18 -38 44 -81 32 -53
40 -71 24 -56 l-24 22 -69 -173 -68 -173 27 -47 c21 -37 32 -46 53 -46 15 1
212 27 437 58 l410 57 17 37 c9 19 20 47 23 60 l6 24 -308 -43 c-169 -23 -315
-41 -323 -39 -8 1 1 6 21 10 32 7 39 14 53 51 l17 42 127 17 c70 10 159 22
199 28 l71 10 21 56 c12 30 20 57 17 59 -2 2 -86 -8 -187 -22 -100 -14 -186
-25 -191 -25 -11 0 30 103 47 115 7 6 124 26 259 44 l246 34 20 54 c11 29 20
56 20 58 0 9 -59 2 -520 -62z"/>
<path d="M9100 7077 c-118 -16 -217 -31 -219 -33 -2 -2 26 -55 64 -116 84
-140 85 -142 39 -94 l-37 39 -349 -351 c-192 -194 -351 -352 -353 -352 -7 0
-156 252 -152 257 3 2 33 8 68 14 35 6 64 11 65 12 0 1 37 94 82 206 l81 204
-32 54 c-28 46 -35 53 -57 48 -14 -2 -338 -48 -720 -100 -382 -53 -698 -97
-702 -98 -5 -1 15 -40 43 -87 28 -47 60 -101 71 -120 l21 -35 -31 35 c-20 23
-34 32 -41 25 -11 -12 -263 -646 -258 -651 4 -4 557 73 561 78 2 1 29 71 61
153 32 83 61 154 66 159 6 7 162 34 205 36 7 0 46 -57 88 -127 42 -71 80 -134
84 -141 7 -10 59 -6 258 22 137 19 600 83 1029 142 429 59 782 109 783 110 2
1 -97 169 -220 373 -216 359 -224 371 -253 370 -16 -1 -127 -15 -245 -32z
m-1270 -352 c0 -3 -11 -33 -25 -67 -14 -34 -25 -65 -25 -69 0 -5 33 -9 73 -11
65 -3 51 -6 -158 -36 -126 -18 -235 -32 -242 -32 -7 0 2 34 24 88 19 48 37 89
38 91 5 5 242 38 283 40 17 0 32 -1 32 -4z m1356 -197 c24 -40 41 -74 39 -76
-5 -6 -392 -61 -420 -61 -11 0 22 13 74 29 92 27 96 30 174 109 45 44 83 78
86 75 3 -2 24 -37 47 -76z"/>
<path d="M16205 6986 l-149 -21 -92 -230 c-50 -126 -98 -233 -105 -237 -19 -9
-260 -40 -266 -34 -3 3 11 8 30 11 l35 7 87 220 c48 120 85 222 82 225 -5 5
-468 -56 -476 -63 -2 -1 14 -31 35 -66 43 -74 52 -90 30 -64 -9 11 -17 18 -20
15 -8 -10 -178 -450 -175 -453 2 -2 203 24 447 58 l442 61 61 61 c64 64 53 40
230 487 l19 47 -33 -1 c-17 -1 -99 -11 -182 -23z"/>
<path d="M14805 6792 c-258 -36 -472 -66 -474 -68 -3 -3 27 -58 68 -124 15
-25 15 -25 -5 -7 -21 17 -22 16 -89 -157 l-68 -175 27 -45 c15 -26 34 -46 44
-46 9 -1 207 25 439 57 l422 58 25 65 c13 36 36 95 50 131 l25 66 -24 35 -23
34 -194 -27 c-106 -15 -194 -28 -196 -28 -2 -1 10 -25 26 -53 l30 -53 -20 -51
-19 -50 -97 -12 c-53 -7 -102 -12 -109 -12 -11 0 109 315 127 334 6 6 452 75
496 76 9 0 54 97 54 116 0 7 -43 2 -515 -64z"/>
<path d="M5917 6636 c-125 -18 -230 -36 -233 -39 -4 -3 26 -59 66 -124 64
-104 68 -114 36 -83 l-36 34 -360 -359 c-198 -197 -358 -360 -357 -361 2 -2
1565 214 1579 218 12 4 -436 743 -453 745 -8 1 -116 -13 -242 -31z m111 -631
c-7 -5 -410 -57 -414 -52 -2 2 31 14 75 27 75 21 82 26 162 106 l83 83 48 -81
c27 -44 47 -82 46 -83z m-431 -61 c-3 -3 -12 -4 -19 -1 -8 3 -5 6 6 6 11 1 17
-2 13 -5z"/>
<path d="M13690 6638 c-74 -11 -136 -22 -138 -23 -2 -2 12 -27 31 -56 19 -30
40 -65 47 -79 l13 -25 -22 19 -22 20 -235 -235 c-209 -208 -233 -229 -218
-191 9 24 14 45 12 48 -3 2 -137 -14 -299 -36 -162 -22 -310 -43 -329 -45 -29
-4 -27 -3 13 10 40 13 50 22 63 54 18 46 8 43 229 72 94 12 175 26 180 30 11
8 50 108 44 113 -2 2 -89 -9 -194 -24 -104 -15 -191 -26 -192 -25 -2 1 8 28
21 61 l24 59 251 36 c139 20 256 40 260 45 11 12 45 104 40 108 -5 5 -979
-130 -985 -137 -3 -3 14 -36 37 -73 23 -38 34 -62 25 -55 -9 8 -18 12 -20 10
-2 -2 -34 -79 -71 -171 l-67 -168 27 -47 c16 -27 29 -49 30 -50 2 -3 1947 266
1951 269 1 2 -66 116 -149 255 l-152 252 -35 -1 c-19 0 -96 -9 -170 -20z m74
-380 l27 -47 -33 -6 c-96 -16 -241 -35 -245 -31 -2 2 18 9 45 15 39 10 61 24
108 72 32 32 61 55 65 51 3 -4 18 -28 33 -54z"/>
<path d="M4614 6455 c-364 -51 -667 -94 -672 -96 -11 -4 59 -129 80 -142 7 -4
104 5 216 21 178 25 203 26 199 13 -2 -9 -61 -159 -131 -334 -69 -175 -126
-322 -126 -326 0 -9 552 67 561 77 8 9 249 621 249 633 0 5 -39 9 -87 10 -121
1 -84 9 250 54 152 21 277 42 277 47 0 5 -17 38 -37 73 -37 63 -39 65 -78 64
-22 -1 -338 -43 -701 -94z"/>
<path d="M11507 6335 c-126 -18 -231 -35 -234 -38 -5 -5 11 -34 55 -105 13
-20 13 -22 -1 -17 -12 5 -34 -41 -102 -214 -49 -122 -85 -224 -82 -227 5 -5
798 99 934 123 28 4 34 12 53 63 l22 59 -32 55 c-17 31 -35 58 -40 61 -6 3
-47 1 -92 -5 -157 -21 -144 -14 -174 -91 -15 -38 -32 -69 -38 -69 -6 0 -69 -9
-141 -20 -152 -23 -166 -23 -104 -5 l45 14 87 218 c89 222 93 234 80 232 -5
-1 -111 -16 -236 -34z"/>
<path d="M3080 6243 c-377 -53 -686 -97 -688 -98 -2 -1 16 -35 40 -74 36 -59
47 -71 69 -71 15 0 106 12 204 26 97 14 180 24 185 22 5 -2 -51 -154 -125
-338 -73 -184 -132 -336 -130 -338 3 -3 502 65 542 73 18 4 42 57 147 322 92
232 122 319 113 325 -6 4 -46 8 -87 9 -63 1 -25 8 229 45 167 24 306 45 308
48 3 2 -14 36 -37 75 -32 54 -47 71 -64 70 -11 0 -329 -44 -706 -96z"/>
<path d="M10098 6142 c-258 -36 -468 -70 -468 -75 0 -6 19 -40 41 -76 24 -38
33 -58 21 -48 -20 18 -21 17 -110 -210 -50 -125 -89 -229 -88 -230 1 -1 88 10
193 24 l192 27 42 105 c23 59 45 109 48 113 4 4 38 10 77 14 l70 7 58 -97 c49
-82 60 -95 79 -91 12 2 87 14 166 25 80 11 146 21 147 23 1 1 -22 42 -51 91
-30 49 -52 93 -49 98 3 4 21 8 39 8 43 0 48 8 110 167 l48 121 -20 34 c-14 25
-26 33 -48 35 -17 0 -240 -29 -497 -65z m182 -96 c0 -2 -9 -25 -20 -50 l-19
-46 31 0 c19 0 28 -4 23 -9 -11 -9 -265 -45 -271 -38 -4 4 33 107 41 116 4 3
164 28 198 30 9 1 17 -1 17 -3z"/>
<path d="M2075 6103 c-132 -19 -243 -37 -246 -41 -4 -4 -66 -158 -139 -342
l-133 -336 -206 -28 c-113 -15 -219 -30 -236 -32 -39 -6 -25 0 62 26 l72 22
127 319 c69 176 124 323 121 325 -8 8 -697 -89 -697 -98 0 -5 30 -57 66 -116
52 -85 60 -101 35 -78 -17 16 -33 27 -36 25 -15 -16 -260 -654 -251 -656 6 -2
298 37 650 86 l639 89 92 92 93 92 123 312 c67 171 129 326 136 344 16 40 40
40 -272 -5z"/>
<path d="M9088 6001 c-257 -36 -469 -69 -473 -72 -3 -4 13 -38 36 -75 23 -38
33 -61 22 -52 -19 17 -21 14 -86 -150 -37 -92 -67 -173 -67 -179 0 -7 12 -32
27 -57 21 -35 32 -44 48 -41 26 6 817 115 833 115 14 0 67 109 58 118 -3 3
-145 -14 -316 -38 -171 -23 -313 -40 -316 -37 -3 2 10 7 29 11 29 5 37 13 51
49 l16 43 173 23 c244 32 222 24 246 89 11 31 19 57 17 59 -1 1 -87 -9 -189
-24 -103 -14 -190 -24 -192 -21 -4 4 28 96 40 115 1 3 492 73 507 73 3 0 13
19 21 43 8 23 18 50 22 60 9 23 36 25 -507 -52z"/>
<path d="M8328 5897 c-120 -17 -218 -35 -218 -39 0 -4 19 -38 41 -75 23 -38
33 -60 22 -50 -19 17 -21 13 -106 -202 -48 -121 -87 -225 -87 -231 0 -6 14 -8
38 -4 20 3 106 15 190 27 l154 22 109 275 c60 151 111 283 115 293 7 22 13 22
-258 -16z"/>
<path d="M7995 5850 c-27 -5 -89 -14 -137 -20 l-87 -12 -171 -160 c-94 -88
-166 -152 -159 -141 10 17 4 34 -52 126 -54 91 -68 107 -89 107 -33 0 -453
-60 -458 -65 -4 -4 24 -55 67 -125 15 -25 15 -25 -6 -7 l-21 18 -87 -221 c-48
-121 -85 -224 -81 -227 7 -7 345 37 367 48 9 4 31 47 49 94 30 76 32 90 22
122 -6 20 -10 38 -8 40 2 2 34 -49 72 -113 l69 -116 47 5 c51 4 48 2 280 216
62 58 92 83 66 55 -34 -36 -56 -74 -83 -142 -21 -51 -36 -94 -34 -96 2 -2 70
6 151 17 l148 21 109 276 c61 151 113 283 117 293 7 19 -6 20 -91 7z"/>
<path d="M6285 5613 c-253 -36 -462 -66 -464 -68 -2 -2 14 -32 35 -67 50 -84
50 -86 28 -66 -20 18 -22 15 -89 -153 l-68 -172 24 -45 c13 -24 29 -46 36 -49
10 -4 789 99 849 112 15 3 29 22 44 60 12 31 21 57 19 59 -2 2 -143 -16 -314
-40 -330 -46 -363 -49 -300 -30 37 11 50 26 77 88 2 4 91 19 200 34 l196 27
21 55 c11 31 18 58 16 60 -2 2 -88 -7 -191 -22 -103 -14 -189 -24 -191 -22 -3
3 36 105 44 115 2 3 117 21 256 40 l252 36 16 35 c34 74 34 80 -3 79 -18 -1
-240 -30 -493 -66z"/>
<path d="M5205 5463 c-253 -35 -461 -66 -464 -68 -3 -4 25 -57 68 -125 15 -25
15 -25 -6 -7 -21 18 -21 18 -107 -201 -47 -120 -86 -223 -86 -228 0 -12 365
37 379 51 5 6 27 55 49 110 44 110 34 102 147 118 l40 6 55 -94 c41 -70 60
-95 75 -95 26 0 319 40 323 45 2 1 -22 44 -53 94 -30 51 -55 94 -55 96 0 3 11
5 24 5 60 0 69 12 126 155 l54 136 -19 35 c-16 29 -23 34 -54 33 -20 -1 -243
-30 -496 -66z m185 -97 c0 -2 -9 -25 -19 -50 l-20 -45 47 -3 c35 -2 9 -9 -107
-25 -85 -13 -156 -21 -158 -19 -2 2 7 30 20 62 l23 59 80 11 c90 13 134 16
134 10z"/>
<path d="M4172 5320 c-266 -37 -485 -69 -487 -71 -2 -3 17 -38 42 -79 27 -45
37 -67 24 -56 -12 11 -22 17 -24 15 -10 -13 -176 -444 -172 -447 3 -4 183 19
346 44 36 5 37 7 79 114 33 83 47 110 64 113 11 3 143 22 293 43 l272 37 56
142 56 143 -22 36 c-11 20 -26 36 -32 35 -7 -1 -229 -32 -495 -69z m148 -140
c-11 -28 -20 -53 -20 -55 0 -3 17 -6 38 -6 20 -1 -28 -11 -108 -23 -80 -12
-147 -21 -149 -19 -2 1 6 29 19 62 l22 60 56 7 c32 4 77 10 102 14 25 4 48 8
52 9 4 0 -1 -22 -12 -49z"/>
<path d="M2055 5016 c-781 -106 -1441 -196 -1466 -200 l-46 -7 -47 -106 c-26
-58 -45 -107 -43 -109 3 -4 2923 410 2977 421 21 5 30 19 54 88 16 45 31 88
34 95 2 7 -5 12 -19 11 -13 -1 -663 -88 -1444 -193z"/>
<path d="M1884 4700 c-809 -119 -1475 -220 -1481 -223 -12 -8 -117 -246 -111
-252 5 -5 2955 420 3002 433 26 6 33 19 76 135 l48 127 -32 -1 c-17 -1 -693
-99 -1502 -219z"/>
</g>
</svg>
